<?xml version="1.0" encoding="UTF-8"?>
<svg width="128" height="128" viewBox="0 0 128 128" fill="none" xmlns="http://www.w3.org/2000/svg">
  <!-- 背景圆角方形，柔和紫色渐变 -->
  <defs>
    <linearGradient id="bg" x1="0" y1="0" x2="128" y2="128" gradientUnits="userSpaceOnUse">
      <stop offset="0%" stop-color="#8A2BE2"/>
      <stop offset="100%" stop-color="#6A0DAD"/>
    </linearGradient>
    <linearGradient id="stroke" x1="0" y1="0" x2="128" y2="128" gradientUnits="userSpaceOnUse">
      <stop offset="0%" stop-color="#D6B7FF"/>
      <stop offset="100%" stop-color="#A882FF"/>
    </linearGradient>
    <filter id="shadow" x="-20%" y="-20%" width="140%" height="140%" color-interpolation-filters="sRGB">
      <feDropShadow dx="0" dy="4" stdDeviation="6" flood-color="#3B1F63" flood-opacity="0.3"/>
    </filter>
  </defs>

  <rect x="8" y="8" width="112" height="112" rx="24" fill="url(#bg)"/>

  <!-- 画笔主体：简约几何造型，艺术感强 -->
  <g filter="url(#shadow)">
    <!-- 笔杆 -->
    <path d="M84 28 L98 42 L62 78 L48 64 Z" fill="#EDE4FF" stroke="url(#stroke)" stroke-width="2"/>
    <!-- 金属箍 -->
    <path d="M62 78 L54 86 L40 72 L48 64 Z" fill="#C7B7FF"/>
    <!-- 笔毛（挥洒的笔触） -->
    <path d="M40 72 C28 84, 26 100, 34 104 C42 108, 58 104, 66 92 C72 82, 64 76, 62 78 Z" 
          fill="#FFFFFF" opacity="0.85"/>
    <!-- 紫色笔触 -->
    <path d="M28 96 C40 88, 54 86, 66 90 C78 94, 84 98, 88 104" 
          stroke="#B072FF" stroke-width="6" stroke-linecap="round" stroke-linejoin="round"/>
  </g>

  <!-- 简约的高光与边框，提升质感 -->
  <rect x="8" y="8" width="112" height="112" rx="24" stroke="#ffffff" stroke-opacity="0.25"/>
</svg>